<svg width="1200" height="630" viewBox="0 0 1200 630" fill="none" xmlns="http://www.w3.org/2000/svg">
  <rect width="1200" height="630" fill="#050505"/>
  <defs>
    <linearGradient id="goldGrad" x1="0%" y1="0%" x2="100%" y2="100%">
      <stop offset="0%" stop-color="#E0C682"/>
      <stop offset="50%" stop-color="#C8A55C"/>
      <stop offset="100%" stop-color="#A8883E"/>
    </linearGradient>
    <radialGradient id="bgGlow" cx="50%" cy="50%">
      <stop offset="0%" stop-color="rgba(200,165,92,0.08)"/>
      <stop offset="70%" stop-color="transparent"/>
    </radialGradient>
  </defs>
  <rect width="1200" height="630" fill="url(#bgGlow)"/>
  <!-- Grid lines -->
  <line x1="0" y1="0" x2="1200" y2="0" stroke="rgba(255,255,255,0.03)" stroke-width="1"/>
  <!-- Nodes -->
  <circle cx="100" cy="150" r="4" fill="url(#goldGrad)" opacity="0.4"/>
  <circle cx="250" cy="100" r="3" fill="url(#goldGrad)" opacity="0.3"/>
  <circle cx="180" cy="250" r="3.5" fill="url(#goldGrad)" opacity="0.35"/>
  <circle cx="1050" cy="450" r="4" fill="url(#goldGrad)" opacity="0.4"/>
  <circle cx="1100" cy="350" r="3" fill="url(#goldGrad)" opacity="0.3"/>
  <circle cx="950" cy="500" r="3.5" fill="url(#goldGrad)" opacity="0.35"/>
  <line x1="100" y1="150" x2="250" y2="100" stroke="url(#goldGrad)" stroke-width="0.8" opacity="0.2"/>
  <line x1="100" y1="150" x2="180" y2="250" stroke="url(#goldGrad)" stroke-width="0.8" opacity="0.2"/>
  <line x1="1050" y1="450" x2="1100" y2="350" stroke="url(#goldGrad)" stroke-width="0.8" opacity="0.2"/>
  <line x1="1050" y1="450" x2="950" y2="500" stroke="url(#goldGrad)" stroke-width="0.8" opacity="0.2"/>
  <!-- Logo mark -->
  <circle cx="530" cy="220" r="8" fill="url(#goldGrad)"/>
  <circle cx="570" cy="200" r="6" fill="url(#goldGrad)"/>
  <circle cx="570" cy="240" r="6" fill="url(#goldGrad)"/>
  <circle cx="610" cy="220" r="8" fill="url(#goldGrad)"/>
  <line x1="538" y1="216" x2="564" y2="204" stroke="url(#goldGrad)" stroke-width="1.5" opacity="0.5"/>
  <line x1="538" y1="224" x2="564" y2="236" stroke="url(#goldGrad)" stroke-width="1.5" opacity="0.5"/>
  <line x1="576" y1="204" x2="602" y2="216" stroke="url(#goldGrad)" stroke-width="1.5" opacity="0.5"/>
  <line x1="576" y1="236" x2="602" y2="224" stroke="url(#goldGrad)" stroke-width="1.5" opacity="0.5"/>
  <!-- Brand text -->
  <text x="600" y="320" text-anchor="middle" font-family="Georgia, serif" font-size="52" font-weight="700" fill="url(#goldGrad)">Automate with Level</text>
  <text x="600" y="380" text-anchor="middle" font-family="Arial, sans-serif" font-size="24" fill="#9CA3AF">GoHighLevel Expert &amp; Digital Automation Specialist</text>
  <text x="600" y="430" text-anchor="middle" font-family="Arial, sans-serif" font-size="18" fill="#6B7280">CRM Pipelines · AI Workflows · Funnels · Chatbots · White-Label SaaS</text>
  <!-- Bottom border -->
  <rect x="0" y="620" width="1200" height="10" fill="url(#goldGrad)"/>
</svg>
