<svg xmlns="http://www.w3.org/2000/svg" viewBox="0 0 400 240" fill="none">
  <defs>
    <linearGradient id="g1" x1="0%" y1="0%" x2="100%" y2="100%">
      <stop offset="0%" stop-color="#E0C682"/>
      <stop offset="100%" stop-color="#A8883E"/>
    </linearGradient>
  </defs>
  <!-- Brain outline -->
  <path d="M160 60 Q140 60 130 80 Q115 90 115 110 Q115 130 130 140 Q135 160 155 170 Q175 180 200 180 Q225 180 245 170 Q265 160 270 140 Q285 130 285 110 Q285 90 270 80 Q260 60 240 60 Q225 50 200 50 Q175 50 160 60Z" fill="#161619" stroke="url(#g1)" stroke-width="1.5"/>
  <!-- Neural network inside brain -->
  <circle cx="170" cy="90" r="6" fill="url(#g1)" opacity="0.6"/>
  <circle cx="200" cy="75" r="6" fill="url(#g1)" opacity="0.7"/>
  <circle cx="230" cy="90" r="6" fill="url(#g1)" opacity="0.6"/>
  <circle cx="160" cy="120" r="5" fill="url(#g1)" opacity="0.5"/>
  <circle cx="200" cy="115" r="7" fill="url(#g1)" opacity="0.8"/>
  <circle cx="240" cy="120" r="5" fill="url(#g1)" opacity="0.5"/>
  <circle cx="175" cy="150" r="5" fill="url(#g1)" opacity="0.5"/>
  <circle cx="200" cy="145" r="6" fill="url(#g1)" opacity="0.6"/>
  <circle cx="225" cy="150" r="5" fill="url(#g1)" opacity="0.5"/>
  <!-- Neural connections -->
  <line x1="170" y1="90" x2="200" y2="75" stroke="url(#g1)" stroke-width="0.8" opacity="0.4"/>
  <line x1="200" y1="75" x2="230" y2="90" stroke="url(#g1)" stroke-width="0.8" opacity="0.4"/>
  <line x1="170" y1="90" x2="200" y2="115" stroke="url(#g1)" stroke-width="0.8" opacity="0.4"/>
  <line x1="230" y1="90" x2="200" y2="115" stroke="url(#g1)" stroke-width="0.8" opacity="0.4"/>
  <line x1="160" y1="120" x2="200" y2="115" stroke="url(#g1)" stroke-width="0.8" opacity="0.4"/>
  <line x1="240" y1="120" x2="200" y2="115" stroke="url(#g1)" stroke-width="0.8" opacity="0.4"/>
  <line x1="200" y1="115" x2="200" y2="145" stroke="url(#g1)" stroke-width="0.8" opacity="0.4"/>
  <line x1="175" y1="150" x2="200" y2="145" stroke="url(#g1)" stroke-width="0.8" opacity="0.4"/>
  <line x1="225" y1="150" x2="200" y2="145" stroke="url(#g1)" stroke-width="0.8" opacity="0.4"/>
  <!-- Chat bubbles -->
  <rect x="300" y="70" width="70" height="30" rx="10" fill="#161619" stroke="url(#g1)" stroke-width="1" opacity="0.6"/>
  <rect x="310" y="78" width="30" height="3" rx="1.5" fill="url(#g1)" opacity="0.4"/>
  <rect x="310" y="85" width="20" height="3" rx="1.5" fill="url(#g1)" opacity="0.3"/>
  <rect x="30" y="130" width="70" height="30" rx="10" fill="#161619" stroke="url(#g1)" stroke-width="1" opacity="0.6"/>
  <rect x="40" y="138" width="30" height="3" rx="1.5" fill="url(#g1)" opacity="0.4"/>
  <rect x="40" y="145" width="20" height="3" rx="1.5" fill="url(#g1)" opacity="0.3"/>
  <!-- Pulse rings -->
  <circle cx="200" cy="115" r="20" fill="none" stroke="url(#g1)" stroke-width="0.5" opacity="0.2"/>
  <circle cx="200" cy="115" r="35" fill="none" stroke="url(#g1)" stroke-width="0.5" opacity="0.1"/>
</svg>
