<svg xmlns="http://www.w3.org/2000/svg" viewBox="0 0 400 240" fill="none">
  <defs>
    <linearGradient id="g1" x1="0%" y1="0%" x2="100%" y2="100%">
      <stop offset="0%" stop-color="#E0C682"/>
      <stop offset="100%" stop-color="#A8883E"/>
    </linearGradient>
  </defs>
  <!-- Central star rating -->
  <polygon points="200,30 212,65 250,68 222,92 230,130 200,112 170,130 178,92 150,68 188,65" fill="url(#g1)" opacity="0.6" stroke="url(#g1)" stroke-width="1"/>
  <!-- Star row -->
  <polygon points="90,100 96,115 113,117 101,128 104,145 90,136 76,145 79,128 67,117 84,115" fill="url(#g1)" opacity="0.5"/>
  <polygon points="140,100 146,115 163,117 151,128 154,145 140,136 126,145 129,128 117,117 134,115" fill="url(#g1)" opacity="0.55"/>
  <polygon points="200,100 206,115 223,117 211,128 214,145 200,136 186,145 189,128 177,117 194,115" fill="url(#g1)" opacity="0.6"/>
  <polygon points="260,100 266,115 283,117 271,128 274,145 260,136 246,145 249,128 237,117 254,115" fill="url(#g1)" opacity="0.55"/>
  <polygon points="310,100 316,115 333,117 321,128 324,145 310,136 296,145 299,128 287,117 304,115" fill="url(#g1)" opacity="0.35"/>
  <!-- Review cards -->
  <rect x="60" y="165" width="120" height="55" rx="10" fill="#161619" stroke="url(#g1)" stroke-width="1" opacity="0.6"/>
  <rect x="72" y="178" width="60" height="5" rx="2" fill="url(#g1)" opacity="0.3"/>
  <rect x="72" y="188" width="90" height="4" rx="2" fill="#9CA3AF" opacity="0.2"/>
  <rect x="72" y="196" width="80" height="4" rx="2" fill="#9CA3AF" opacity="0.15"/>
  <rect x="72" y="204" width="70" height="4" rx="2" fill="#9CA3AF" opacity="0.1"/>
  <rect x="220" y="165" width="120" height="55" rx="10" fill="#161619" stroke="url(#g1)" stroke-width="1" opacity="0.6"/>
  <rect x="232" y="178" width="60" height="5" rx="2" fill="url(#g1)" opacity="0.3"/>
  <rect x="232" y="188" width="90" height="4" rx="2" fill="#9CA3AF" opacity="0.2"/>
  <rect x="232" y="196" width="80" height="4" rx="2" fill="#9CA3AF" opacity="0.15"/>
  <rect x="232" y="204" width="70" height="4" rx="2" fill="#9CA3AF" opacity="0.1"/>
  <!-- Rating text -->
  <text x="200" y="160" text-anchor="middle" fill="url(#g1)" font-family="sans-serif" font-size="12" opacity="0.7">4.8 / 5.0</text>
</svg>
