<svg xmlns="http://www.w3.org/2000/svg" viewBox="0 0 400 240" fill="none">
  <defs>
    <linearGradient id="g1" x1="0%" y1="0%" x2="100%" y2="100%">
      <stop offset="0%" stop-color="#E0C682"/>
      <stop offset="100%" stop-color="#A8883E"/>
    </linearGradient>
  </defs>
  <!-- Workflow nodes -->
  <circle cx="60" cy="120" r="28" fill="#161619" stroke="url(#g1)" stroke-width="1.5"/>
  <circle cx="200" cy="60" r="24" fill="#161619" stroke="url(#g1)" stroke-width="1.5"/>
  <circle cx="200" cy="180" r="24" fill="#161619" stroke="url(#g1)" stroke-width="1.5"/>
  <circle cx="340" cy="120" r="28" fill="#161619" stroke="url(#g1)" stroke-width="1.5"/>
  <!-- Inner icons -->
  <polygon points="55,110 65,110 65,130 55,130" fill="url(#g1)" opacity="0.6"/>
  <polygon points="195,52 205,52 205,68 195,68" fill="url(#g1)" opacity="0.5"/>
  <polygon points="195,172 205,172 205,188 195,188" fill="url(#g1)" opacity="0.5"/>
  <path d="M330 115 L340 125 L350 115" stroke="url(#g1)" stroke-width="2.5" fill="none" opacity="0.7"/>
  <!-- Connecting paths -->
  <path d="M88 108 Q140 60 176 62" stroke="url(#g1)" stroke-width="1.5" opacity="0.5" stroke-dasharray="4 3"/>
  <path d="M88 132 Q140 180 176 178" stroke="url(#g1)" stroke-width="1.5" opacity="0.5" stroke-dasharray="4 3"/>
  <path d="M224 62 Q280 60 312 108" stroke="url(#g1)" stroke-width="1.5" opacity="0.5" stroke-dasharray="4 3"/>
  <path d="M224 178 Q280 180 312 132" stroke="url(#g1)" stroke-width="1.5" opacity="0.5" stroke-dasharray="4 3"/>
  <!-- Diamond decision node -->
  <polygon points="200,90 215,105 200,120 185,105" fill="#161619" stroke="url(#g1)" stroke-width="1.2" opacity="0.6"/>
  <!-- Arrow heads -->
  <polygon points="174,58 180,62 174,66" fill="url(#g1)" opacity="0.5"/>
  <polygon points="174,174 180,178 174,182" fill="url(#g1)" opacity="0.5"/>
  <!-- Flow dots -->
  <circle cx="130" cy="88" r="3" fill="url(#g1)" opacity="0.4"/>
  <circle cx="130" cy="152" r="3" fill="url(#g1)" opacity="0.4"/>
  <circle cx="270" cy="88" r="3" fill="url(#g1)" opacity="0.4"/>
  <circle cx="270" cy="152" r="3" fill="url(#g1)" opacity="0.4"/>
  <!-- Labels -->
  <text x="60" y="165" text-anchor="middle" fill="#9CA3AF" font-family="sans-serif" font-size="9">Trigger</text>
  <text x="200" y="35" text-anchor="middle" fill="#9CA3AF" font-family="sans-serif" font-size="9">If Yes</text>
  <text x="200" y="220" text-anchor="middle" fill="#9CA3AF" font-family="sans-serif" font-size="9">If No</text>
  <text x="340" y="165" text-anchor="middle" fill="#9CA3AF" font-family="sans-serif" font-size="9">Action</text>
</svg>
